<svg width="200" height="41" viewBox="0 0 200 41" fill="none" xmlns="http://www.w3.org/2000/svg">
<path d="M10.1755 33V8.5H20.7805C22.9738 8.5 24.8638 8.86167 26.4505 9.585C28.0372 10.285 29.2622 11.3 30.1255 12.63C30.9888 13.96 31.4205 15.5467 31.4205 17.39C31.4205 19.21 30.9888 20.785 30.1255 22.115C29.2622 23.445 28.0372 24.4717 26.4505 25.195C24.8638 25.895 22.9738 26.245 20.7805 26.245H13.3255L15.8455 23.69V33H10.1755ZM15.8455 24.32L13.3255 21.625H20.4655C22.2155 21.625 23.5222 21.2517 24.3855 20.505C25.2488 19.7583 25.6805 18.72 25.6805 17.39C25.6805 16.0367 25.2488 14.9867 24.3855 14.24C23.5222 13.4933 22.2155 13.12 20.4655 13.12H13.3255L15.8455 10.425V24.32ZM35.4253 33V7.03H40.8853V33H35.4253ZM57.5026 33V29.325L57.1526 28.52V21.94C57.1526 20.7733 56.791 19.8633 56.0676 19.21C55.3676 18.5567 54.2826 18.23 52.8126 18.23C51.8093 18.23 50.8176 18.3933 49.8376 18.72C48.881 19.0233 48.0643 19.4433 47.3876 19.98L45.4276 16.165C46.4543 15.4417 47.691 14.8817 49.1376 14.485C50.5843 14.0883 52.0543 13.89 53.5476 13.89C56.4176 13.89 58.646 14.5667 60.2326 15.92C61.8193 17.2733 62.6126 19.385 62.6126 22.255V33H57.5026ZM51.7626 33.28C50.2926 33.28 49.0326 33.035 47.9826 32.545C46.9326 32.0317 46.1276 31.3433 45.5676 30.48C45.0076 29.6167 44.7276 28.6483 44.7276 27.575C44.7276 26.455 44.996 25.475 45.5326 24.635C46.0926 23.795 46.9676 23.1417 48.1576 22.675C49.3476 22.185 50.8993 21.94 52.8126 21.94H57.8176V25.125H53.4076C52.1243 25.125 51.2376 25.335 50.7476 25.755C50.281 26.175 50.0476 26.7 50.0476 27.33C50.0476 28.03 50.316 28.59 50.8526 29.01C51.4126 29.4067 52.171 29.605 53.1276 29.605C54.0376 29.605 54.8543 29.395 55.5776 28.975C56.301 28.5317 56.826 27.89 57.1526 27.05L57.9926 29.57C57.596 30.7833 56.8726 31.705 55.8226 32.335C54.7726 32.965 53.4193 33.28 51.7626 33.28ZM69.5924 40.07C68.6124 40.07 67.644 39.9183 66.6874 39.615C65.7307 39.3117 64.949 38.8917 64.3424 38.355L66.3374 34.47C66.7574 34.8433 67.2357 35.135 67.7724 35.345C68.3324 35.555 68.8807 35.66 69.4174 35.66C70.1874 35.66 70.794 35.4733 71.2374 35.1C71.704 34.75 72.124 34.155 72.4974 33.315L73.4774 31.005L73.8974 30.41L80.6524 14.17H85.9024L77.3974 34.155C76.7907 35.6717 76.0907 36.8617 75.2974 37.725C74.5274 38.5883 73.664 39.195 72.7074 39.545C71.774 39.895 70.7357 40.07 69.5924 40.07ZM72.8124 33.735L64.4124 14.17H70.0474L76.5574 29.92L72.8124 33.735ZM96.9627 33.28C94.816 33.28 92.926 32.86 91.2927 32.02C89.6827 31.18 88.4343 30.0367 87.5477 28.59C86.661 27.12 86.2177 25.4517 86.2177 23.585C86.2177 21.695 86.6493 20.0267 87.5127 18.58C88.3993 17.11 89.601 15.9667 91.1177 15.15C92.6343 14.31 94.3493 13.89 96.2627 13.89C98.106 13.89 99.7627 14.2867 101.233 15.08C102.726 15.85 103.904 16.97 104.768 18.44C105.631 19.8867 106.063 21.625 106.063 23.655C106.063 23.865 106.051 24.11 106.028 24.39C106.004 24.6467 105.981 24.8917 105.958 25.125H90.6627V21.94H103.088L100.988 22.885C100.988 21.905 100.789 21.0533 100.393 20.33C99.996 19.6067 99.4477 19.0467 98.7477 18.65C98.0477 18.23 97.231 18.02 96.2977 18.02C95.3643 18.02 94.536 18.23 93.8127 18.65C93.1127 19.0467 92.5643 19.6183 92.1677 20.365C91.771 21.0883 91.5727 21.9517 91.5727 22.955V23.795C91.5727 24.8217 91.7943 25.7317 92.2377 26.525C92.7043 27.295 93.346 27.89 94.1627 28.31C95.0027 28.7067 95.9827 28.905 97.1027 28.905C98.106 28.905 98.981 28.7533 99.7277 28.45C100.498 28.1467 101.198 27.6917 101.828 27.085L104.733 30.235C103.869 31.215 102.784 31.9733 101.478 32.51C100.171 33.0233 98.666 33.28 96.9627 33.28ZM109.698 33V14.17H114.913V19.49L114.178 17.95C114.738 16.62 115.636 15.6167 116.873 14.94C118.109 14.24 119.614 13.89 121.388 13.89V18.93C121.154 18.9067 120.944 18.895 120.758 18.895C120.571 18.8717 120.373 18.86 120.163 18.86C118.669 18.86 117.456 19.2917 116.523 20.155C115.613 20.995 115.158 22.3133 115.158 24.11V33H109.698Z" fill="#E6E6E6"/>
<path d="M128.851 33H123.084L131.871 7.54545H138.806L147.581 33H141.814L135.438 13.3622H135.239L128.851 33ZM128.49 22.9947H142.112V27.1957H128.49V22.9947ZM150.546 40.1591V13.9091H155.766V17.1158H156.002C156.234 16.602 156.569 16.08 157.009 15.5497C157.456 15.0111 158.036 14.5637 158.749 14.2074C159.47 13.8428 160.364 13.6605 161.433 13.6605C162.825 13.6605 164.11 14.0251 165.286 14.7543C166.463 15.4751 167.403 16.5647 168.108 18.0231C168.812 19.4731 169.164 21.2919 169.164 23.4794C169.164 25.6089 168.82 27.407 168.133 28.8736C167.453 30.3319 166.525 31.4381 165.348 32.1921C164.18 32.9379 162.871 33.3107 161.421 33.3107C160.393 33.3107 159.519 33.1409 158.798 32.8011C158.086 32.4614 157.502 32.0347 157.046 31.521C156.59 30.9989 156.242 30.4728 156.002 29.9425H155.84V40.1591H150.546ZM155.728 23.4545C155.728 24.5897 155.886 25.5799 156.201 26.4251C156.516 27.2702 156.971 27.929 157.568 28.4013C158.165 28.8653 158.89 29.0973 159.743 29.0973C160.605 29.0973 161.334 28.8612 161.93 28.3888C162.527 27.9083 162.979 27.2454 163.285 26.4002C163.6 25.5468 163.758 24.5649 163.758 23.4545C163.758 22.3525 163.604 21.383 163.298 20.5462C162.991 19.7093 162.54 19.0547 161.943 18.5824C161.346 18.1101 160.613 17.8739 159.743 17.8739C158.881 17.8739 158.152 18.1018 157.555 18.5575C156.967 19.0133 156.516 19.6596 156.201 20.4964C155.886 21.3333 155.728 22.3194 155.728 23.4545ZM172.694 40.1591V13.9091H177.914V17.1158H178.15C178.382 16.602 178.718 16.08 179.157 15.5497C179.604 15.0111 180.185 14.5637 180.897 14.2074C181.618 13.8428 182.513 13.6605 183.582 13.6605C184.974 13.6605 186.258 14.0251 187.435 14.7543C188.611 15.4751 189.552 16.5647 190.256 18.0231C190.96 19.4731 191.313 21.2919 191.313 23.4794C191.313 25.6089 190.969 27.407 190.281 28.8736C189.602 30.3319 188.674 31.4381 187.497 32.1921C186.329 32.9379 185.019 33.3107 183.569 33.3107C182.542 33.3107 181.668 33.1409 180.947 32.8011C180.234 32.4614 179.65 32.0347 179.194 31.521C178.739 30.9989 178.391 30.4728 178.15 29.9425H177.989V40.1591H172.694ZM177.877 23.4545C177.877 24.5897 178.034 25.5799 178.349 26.4251C178.664 27.2702 179.12 27.929 179.716 28.4013C180.313 28.8653 181.038 29.0973 181.891 29.0973C182.753 29.0973 183.482 28.8612 184.079 28.3888C184.676 27.9083 185.127 27.2454 185.434 26.4002C185.749 25.5468 185.906 24.5649 185.906 23.4545C185.906 22.3525 185.753 21.383 185.446 20.5462C185.14 19.7093 184.688 19.0547 184.091 18.5824C183.495 18.1101 182.761 17.8739 181.891 17.8739C181.03 17.8739 180.301 18.1018 179.704 18.5575C179.116 19.0133 178.664 19.6596 178.349 20.4964C178.034 21.3333 177.877 22.3194 177.877 23.4545Z" fill="#AD231D"/>
<circle cx="20" cy="17" r="7" fill="#E6E6E6"/>
<path d="M25.25 17.433L17.75 21.7631C17.4167 21.9556 17 21.715 17 21.3301V12.6699C17 12.285 17.4167 12.0444 17.75 12.2369L25.25 16.567C25.5833 16.7594 25.5833 17.2406 25.25 17.433Z" fill="#AD231D" stroke="#0D0D0D"/>
</svg>
