<svg width="52" height="40" viewBox="0 0 52 40" fill="none" xmlns="http://www.w3.org/2000/svg">
<path d="M2.9968 33V8.5H13.6018C15.7951 8.5 17.6851 8.86167 19.2718 9.585C20.8585 10.285 22.0835 11.3 22.9468 12.63C23.8101 13.96 24.2418 15.5467 24.2418 17.39C24.2418 19.21 23.8101 20.785 22.9468 22.115C22.0835 23.445 20.8585 24.4717 19.2718 25.195C17.6851 25.895 15.7951 26.245 13.6018 26.245H6.1468L8.6668 23.69V33H2.9968ZM8.6668 24.32L6.1468 21.625H13.2868C15.0368 21.625 16.3435 21.2517 17.2068 20.505C18.0701 19.7583 18.5018 18.72 18.5018 17.39C18.5018 16.0367 18.0701 14.9867 17.2068 14.24C16.3435 13.4933 15.0368 13.12 13.2868 13.12H6.1468L8.6668 10.425V24.32Z" fill="#E6E6E6"/>
<path d="M32.3263 33H26.5593L35.3466 7.54545H42.282L51.0568 33H45.2898L38.9137 13.3622H38.7148L32.3263 33ZM31.9659 22.9947H45.5881V27.1957H31.9659V22.9947Z" fill="#AD231D"/>
<circle cx="13" cy="17" r="7" fill="#E6E6E6"/>
<path d="M18.25 17.433L10.75 21.7631C10.4167 21.9556 10 21.715 10 21.3301L10 12.6699C10 12.285 10.4167 12.0444 10.75 12.2369L18.25 16.567C18.5833 16.7594 18.5833 17.2406 18.25 17.433Z" fill="#AD231D" stroke="#0D0D0D"/>
</svg>
